<?xml version="1.0" standalone="no"?>
<!DOCTYPE svg PUBLIC "-//W3C//DTD SVG 20010904//EN"
 "http://www.w3.org/TR/2001/REC-SVG-20010904/DTD/svg10.dtd">
<svg version="1.0" xmlns="http://www.w3.org/2000/svg"
 width="500.000000pt" height="500.000000pt" viewBox="0 0 500.000000 500.000000"
 preserveAspectRatio="xMidYMid meet">

<g transform="translate(0.000000,500.000000) scale(0.100000,-0.100000)"
fill="#000000" stroke="none">
<path d="M2302 3013 c40 -6 78 -49 78 -89 0 -19 -5 -34 -11 -34 -41 0 -209
-122 -209 -152 0 -4 16 -8 35 -8 28 0 42 8 77 46 36 39 84 74 103 74 3 0 5
-27 5 -60 l0 -60 75 0 74 0 3 73 3 72 35 -3 c56 -5 137 -50 177 -98 21 -24 41
-44 45 -44 7 0 5 25 -7 86 -6 27 -96 68 -188 85 -66 12 -68 13 -62 38 9 36 33
60 69 70 21 6 -28 9 -149 9 -99 -1 -168 -3 -153 -5z"/>
<path d="M1230 2650 c0 -5 16 -10 35 -10 l36 0 -3 -82 c-3 -83 -3 -83 -31 -86
-16 -2 -35 2 -43 9 -9 8 -14 8 -14 1 0 -14 33 -32 59 -32 40 0 51 26 51 121
l0 89 -45 0 c-25 0 -45 -4 -45 -10z"/>
<path d="M1420 2555 l0 -105 75 0 c43 0 75 4 75 10 0 6 -28 10 -65 10 l-65 0
0 40 0 40 58 2 57 1 -55 6 -55 6 -3 38 -3 37 60 0 c34 0 61 4 61 10 0 6 -30
10 -70 10 l-70 0 0 -105z"/>
<path d="M1662 2644 c-25 -17 -29 -56 -8 -73 8 -6 33 -17 56 -24 51 -15 70
-38 51 -61 -16 -19 -91 -22 -110 -3 -11 10 -13 9 -9 -2 12 -40 121 -37 139 3
16 34 -2 60 -53 75 -53 16 -68 28 -68 52 0 27 45 43 82 30 29 -10 41 2 12 13
-28 11 -69 6 -92 -10z"/>
<path d="M1870 2580 c0 -73 3 -83 25 -105 41 -42 116 -27 135 28 13 38 13 157
0 157 -6 0 -10 -31 -10 -73 0 -89 -15 -117 -65 -117 -53 0 -65 20 -65 111 0
46 -4 79 -10 79 -6 0 -10 -33 -10 -80z"/>
<path d="M2148 2648 c-9 -7 -17 -20 -18 -28 -6 -41 1 -49 61 -71 54 -20 60
-25 57 -48 -3 -23 -8 -26 -45 -29 -23 -2 -51 2 -63 8 -14 7 -20 7 -20 0 0 -28
93 -39 128 -14 46 32 20 82 -53 99 -59 13 -72 44 -31 70 19 13 32 14 60 6 20
-5 36 -6 36 -1 0 22 -86 28 -112 8z"/>
<path d="M2478 2631 c-65 -58 -34 -163 53 -177 37 -6 89 9 89 26 0 7 -6 8 -19
0 -32 -17 -85 -12 -109 10 -74 70 1 182 96 144 34 -14 45 -2 13 16 -38 20 -89
12 -123 -19z"/>
<path d="M2710 2555 c0 -63 4 -105 10 -105 6 0 10 23 10 50 l0 50 65 0 65 0 0
-50 c0 -27 5 -50 10 -50 6 0 10 42 10 105 0 63 -4 105 -10 105 -5 0 -10 -22
-10 -50 l0 -50 -65 0 -65 0 0 50 c0 28 -4 50 -10 50 -6 0 -10 -42 -10 -105z"/>
<path d="M3032 2633 c-6 -16 -26 -63 -46 -105 -19 -43 -31 -78 -25 -78 5 0 15
14 20 30 11 29 13 30 74 30 60 0 63 -1 75 -30 7 -16 17 -30 22 -30 5 0 7 3 5
8 -2 4 -23 51 -48 105 -24 53 -49 97 -55 97 -7 0 -17 -12 -22 -27z m68 -100
c0 -9 -16 -13 -45 -13 -25 0 -45 4 -45 9 0 4 10 32 22 61 l22 54 23 -50 c12
-27 23 -55 23 -61z"/>
<path d="M3244 2626 c-26 -26 -34 -42 -34 -69 0 -47 40 -94 86 -103 35 -6 94
11 94 27 0 12 -17 11 -25 -1 -3 -5 -24 -10 -46 -10 -52 0 -89 35 -89 82 0 68
56 106 123 83 39 -13 51 -3 18 15 -41 21 -91 12 -127 -24z"/>
<path d="M3515 2649 c-34 -20 -55 -52 -55 -87 0 -92 87 -141 167 -92 54 32 61
116 14 163 -23 23 -98 32 -126 16z m121 -42 c68 -81 -46 -182 -130 -116 -21
16 -26 29 -26 63 0 89 97 123 156 53z"/>
<path d="M3760 2555 c0 -63 4 -105 10 -105 6 0 10 35 10 86 l0 87 68 -86 c37
-47 70 -86 75 -87 4 0 7 47 7 105 0 125 -18 143 -22 23 l-3 -83 -65 83 c-36
45 -68 82 -72 82 -5 0 -8 -47 -8 -105z"/>
<path d="M2116 2328 c28 -92 95 -167 189 -214 69 -34 74 -39 69 -63 -18 -75
-63 -142 -124 -183 -24 -16 -23 -17 46 -13 39 1 84 10 101 18 50 26 102 89
120 143 16 51 16 52 64 57 73 9 152 51 204 109 39 43 45 56 45 93 0 24 3 50 6
59 3 9 1 16 -5 16 -6 0 -11 -7 -11 -16 0 -33 -53 -125 -92 -159 -44 -37 -132
-75 -173 -75 l-25 0 0 125 0 125 -75 0 -75 0 0 -115 0 -116 -27 15 c-47 24
-113 98 -141 159 -25 55 -28 57 -65 57 -35 0 -38 -2 -31 -22z"/>
</g>
</svg>
